PathFileType	4	(X/Y/Z)	s01c0201.trc
DataRate	CameraRate	NumFrames	NumMarkers	Units	OrigDataRate	OrigDataStartFrame	OrigNumFrames
200	200	4	48	mm	200	1250	2000
Frame#	Time	racr			lacr			c7			jug			rlel			rdr			llel			ldr			s2			lic			ric			lasi			rasi			rpsi			lpsi			rgt			lgt			rth1			rth2			rth3			rth4			rlfc			rsh1			rsh2			rsh3			rsh4			rlmal			rmmal			rcal			rtoe			rmt5			lth1			lth2			lth4			lth3			llfc			lsh1			lsh2			lsh3			lsh4			llmal			lmmal			lcal			ltoe			lmt5			SBIKE			LBIKE			RBIKE			
		X1	Y1	Z1	X2	Y2	Z2	X3	Y3	Z3	X4	Y4	Z4	X5	Y5	Z5	X6	Y6	Z6	X7	Y7	Z7	X8	Y8	Z8	X9	Y9	Z9	X10	Y10	Z10	X11	Y11	Z11	X12	Y12	Z12	X13	Y13	Z13	X14	Y14	Z14	X15	Y15	Z15	X16	Y16	Z16	X17	Y17	Z17	X18	Y18	Z18	X19	Y19	Z19	X20	Y20	Z20	X21	Y21	Z21	X22	Y22	Z22	X23	Y23	Z23	X24	Y24	Z24	X25	Y25	Z25	X26	Y26	Z26	X27	Y27	Z27	X28	Y28	Z28	X29	Y29	Z29	X30	Y30	Z30	X31	Y31	Z31	X32	Y32	Z32	X33	Y33	Z33	X34	Y34	Z34	X35	Y35	Z35	X36	Y36	Z36	X37	Y37	Z37	X38	Y38	Z38	X39	Y39	Z39	X40	Y40	Z40	X41	Y41	Z41	X42	Y42	Z42	X43	Y43	Z43	X44	Y44	Z44	X45	Y45	Z45	X46	Y46	Z46	X47	Y47	Z47	X48	Y48	Z48	
1250	6.2500	524.836548	1251.986572	-57.889103	554.373291	1231.757690	-423.776001	519.440247	1357.456299	-247.205536	504.649780	1190.856445	-241.234558	462.529205	985.495300	50.265423	655.276672	872.786499	-51.940659	474.369080	984.187988	-563.376099	659.292480	883.430115	-442.804535	-9.118532	1148.326782	-260.734802	160.364883	1154.343628	-438.273895	137.264557	1156.587646	-98.910187	165.860474	1107.885498	-407.569305	170.269363	1109.797485	-126.280457	18.051773	1189.882812	-209.933578	16.186819	1191.331177	-314.944061	93.502205	1036.524536	-75.542473	121.570366	1037.038574	-455.195221	169.632095	924.819641	-56.567417	220.897034	859.673706	-61.624802	271.345764	785.491943	-73.069008	266.085907	891.726135	-73.503975	316.026550	678.686890	-90.337646	281.248962	567.510742	-55.735420	270.879089	483.298492	-59.283436	251.761734	396.874786	-68.131866	319.087952	476.338989	-95.339638	215.290482	276.620636	-89.004807	267.812439	291.752655	-163.844620	171.177505	262.356079	-137.641891	429.923767	181.062881	-132.801102	323.705933	170.693420	-59.675083	222.584396	969.469910	-447.798767	311.140198	958.510925	-448.041565	319.261627	1011.235779	-436.400635	393.135071	937.919861	-429.935669	478.245483	866.721924	-395.969147	386.210052	811.937988	-430.400208	320.951202	755.689514	-424.198914	254.048218	703.168579	-413.161713	356.885590	717.762451	-392.009430	156.690994	626.025635	-401.096252	181.749268	615.724426	-318.030151	97.758324	636.671326	-356.803772	270.312866	417.616638	-370.736237	184.543060	484.585083	-434.169006	-222.993195	893.877258	-249.364761	-12.108728	84.542511	-453.729065	-20.288843	80.764542	-53.721573	
1251	6.2550	526.696167	1252.158081	-60.199654	553.292236	1232.163940	-426.085052	519.712036	1357.669067	-249.431213	505.167023	1191.157104	-243.577225	462.992493	986.880920	50.087379	655.317139	872.990967	-51.954037	473.531189	983.868591	-563.777100	658.858948	883.731140	-442.868500	-9.315506	1148.167603	-259.335388	159.798370	1155.171143	-438.195404	138.341354	1156.468506	-98.765099	165.451385	1108.832275	-407.307098	170.220001	1109.672241	-125.799919	18.108150	1189.967529	-208.663864	16.050180	1191.475464	-313.570038	92.557610	1035.933960	-74.787514	121.398743	1038.070557	-454.779236	166.522415	923.944275	-54.877640	216.492752	857.852234	-59.587502	265.697388	782.770264	-70.594475	261.951965	888.982849	-70.808311	309.115448	675.452698	-87.509155	273.595795	564.613892	-53.253567	263.108215	480.399078	-56.877663	243.900131	394.037445	-65.950340	311.812897	473.313782	-92.214310	208.201935	273.450134	-87.728348	261.527252	288.895264	-162.596725	164.366791	260.783630	-136.034317	421.228363	173.897064	-133.272141	315.330536	165.345978	-59.447758	222.823318	972.324524	-447.532501	311.629395	963.393005	-448.366364	318.662415	1016.266174	-437.085541	394.174622	944.623657	-430.632294	483.101379	877.497620	-396.340149	390.520599	821.848572	-431.549713	325.877136	764.198181	-424.533356	259.694366	710.715393	-413.339050	362.428589	726.459167	-392.980286	163.295242	631.083496	-400.999542	188.782776	621.571533	-317.923492	104.003838	640.825439	-356.683807	280.218262	424.695312	-370.461945	193.486725	490.219025	-433.865234	-223.060471	893.900635	-249.262695	-12.115208	84.538635	-453.810547	-20.298693	80.780602	-53.708164	
1252	6.2600	528.589661	1252.239014	-62.581921	552.141907	1232.486328	-428.517395	520.050537	1357.807129	-251.698273	505.510284	1191.393677	-245.918671	463.577179	988.153015	49.815067	655.412781	873.199158	-52.077732	472.629333	983.473328	-564.198425	658.774231	884.340210	-442.818024	-9.460464	1148.410034	-258.099854	159.217865	1156.233398	-438.054352	139.325989	1156.486938	-98.665573	165.017746	1109.911621	-407.039978	170.123917	1109.673462	-125.345062	18.088938	1190.113525	-207.445160	15.936648	1191.735229	-312.271637	91.570442	1035.510498	-74.078766	120.984131	1039.464844	-454.367706	163.517166	923.297729	-53.066120	212.340286	856.420959	-57.535084	260.385895	780.594360	-68.083443	258.508240	886.763672	-68.641731	302.530823	672.943481	-84.652794	266.205048	562.229431	-50.787273	255.453110	478.118347	-54.568493	236.156204	391.735046	-63.963406	304.769684	470.858307	-89.034500	201.598236	271.479340	-86.047699	255.179626	286.677246	-161.348373	157.536316	260.051392	-134.231064	412.247498	167.272919	-133.788467	306.626526	160.818954	-59.231873	223.089691	975.210815	-447.213593	312.060944	968.022827	-448.675568	318.109863	1021.159546	-437.563049	395.056000	951.109131	-431.211182	486.014740	887.207275	-397.254578	394.658051	830.424683	-431.592682	330.652039	772.305725	-424.967590	265.216644	717.779785	-413.504364	367.877411	734.695740	-393.849915	169.815155	635.448120	-400.920380	195.593262	626.670227	-317.870667	110.228859	644.290771	-356.566437	290.431152	431.441925	-370.314850	202.509506	495.324524	-433.649261	-223.099945	893.936768	-249.201523	-12.127793	84.580208	-453.792206	-20.312628	80.797852	-53.710098	
1253	6.2650	530.484375	1252.117432	-65.034508	550.979492	1232.839355	-430.962067	520.427856	1357.851562	-253.924088	505.888397	1191.594116	-248.070663	464.240448	989.247864	49.544434	655.560303	873.326355	-52.249729	471.699585	983.079773	-564.626831	657.978271	884.280396	-443.181183	-9.762036	1148.760864	-257.323395	158.577148	1157.377197	-437.923584	140.148346	1156.635254	-98.657204	164.561325	1111.108154	-406.760803	169.961426	1109.760742	-124.827293	18.069830	1190.398315	-206.327255	15.831225	1192.129028	-311.059662	90.496078	1035.310669	-73.340019	120.690872	1041.045654	-454.083832	160.665558	922.977661	-51.174911	208.461700	855.353699	-55.433037	255.445984	778.741516	-65.019096	255.351181	885.177490	-66.312950	296.527283	671.070190	-81.774101	259.232300	560.385925	-48.340412	248.157227	476.274536	-52.384518	228.713104	390.000397	-62.007103	298.017914	468.769409	-85.977776	194.611481	270.215179	-84.835258	248.796158	285.081757	-160.113647	150.721191	260.335327	-131.956757	403.062164	161.398117	-134.189346	297.784607	156.852814	-59.067841	223.325424	978.151672	-446.956604	312.454651	972.603943	-448.972443	317.579041	1025.973755	-438.236115	395.816162	957.287720	-431.699371	489.762299	897.062439	-397.655762	398.244263	838.982178	-432.039337	335.135895	779.893494	-425.603363	270.602509	724.484680	-413.788940	373.150421	742.631348	-394.944824	176.244156	639.080627	-400.862854	202.435516	631.246155	-317.873566	116.622719	646.916382	-356.190735	300.812103	437.615936	-370.019135	211.684784	499.773621	-433.532959	-223.142868	893.966370	-249.137085	-12.128840	84.622414	-453.793671	-20.323200	80.803741	-53.700432	
